<svg width="28" height="28" viewBox="0 0 28 28" fill="none" xmlns="http://www.w3.org/2000/svg">
<path d="M22.1371 27.9847H17.5373C17.0612 27.9847 16.6748 27.597 16.6748 27.1193V19.6194C16.6748 19.4601 16.5459 19.331 16.3872 19.331H11.2123C11.0537 19.331 10.9248 19.4601 10.9248 19.6194V27.1193C10.9248 27.597 10.5385 27.9847 10.0624 27.9847H5.46253C4.35284 27.9847 3.44993 27.0789 3.44993 25.9653V15.2925H1.43754C0.645177 15.2925 0 14.6452 0 13.8502C0 13.4684 0.155398 13.0945 0.425556 12.8234L13.203 0.532927C13.5365 0.212006 14.0631 0.212006 14.3967 0.532927L27.1614 12.8095C27.4442 13.0945 27.5994 13.4684 27.5994 13.8502C27.5994 14.6452 26.9545 15.2925 26.1621 15.2925H24.1495V25.9653C24.1495 27.0789 23.2468 27.9847 22.1371 27.9847ZM18.3998 26.2539H22.1371C22.2936 26.2539 22.4245 26.1223 22.4245 25.9653V14.4272C22.4245 13.9495 22.8109 13.5618 23.287 13.5618H25.4502L13.7997 2.35704L2.14947 13.5618H4.31241C4.7885 13.5618 5.17489 13.9495 5.17489 14.4272V25.9653C5.17489 26.1223 5.30608 26.2539 5.46253 26.2539H9.19988V19.6194C9.19988 18.506 10.1026 17.6003 11.2123 17.6003H16.3872C17.4971 17.6003 18.3998 18.506 18.3998 19.6194V26.2539Z" fill="#4298D3"/>
</svg>
