<svg width="24" height="28" viewBox="0 0 24 28" fill="none" xmlns="http://www.w3.org/2000/svg">
<path d="M23.162 20.8941C23.0524 20.3069 22.4891 19.9201 21.9038 20.0301C21.3186 20.1402 20.933 20.7054 21.0426 21.2926C21.124 21.7282 20.9331 22.0387 20.8122 22.185C20.6915 22.3309 20.4232 22.5756 19.9831 22.5756H3.61757C3.17743 22.5756 2.90919 22.3309 2.7885 22.185C2.66753 22.0387 2.47665 21.7282 2.55805 21.2926C2.86386 19.6552 3.47747 18.5783 4.07087 17.5368C4.79154 16.2721 5.53674 14.9642 5.53674 12.9482V11.3256C5.53674 7.91452 8.30014 5.10175 11.6983 5.05226H11.9022C15.2889 5.10164 18.043 7.91441 18.043 11.3256V12.9482C18.043 14.664 18.6024 15.8447 19.1268 16.8167C19.3219 17.1784 19.6928 17.3837 20.0759 17.3837C20.2492 17.3837 20.425 17.3417 20.5881 17.2531C21.1118 16.9688 21.3065 16.3123 21.023 15.7869C20.5013 14.8197 20.1993 14.0452 20.1993 12.9482V11.3256C20.1993 9.09939 19.3399 6.99672 17.7792 5.40501C16.4418 4.04089 14.7245 3.18962 12.868 2.95467V1.37372C12.868 0.776283 12.3854 0.291992 11.7899 0.291992C11.1945 0.291992 10.7118 0.776283 10.7118 1.37372V2.95786C6.59023 3.4944 3.38055 7.0626 3.38055 11.3256V12.9482C3.38055 14.3895 2.85911 15.3046 2.19898 16.4631C1.54865 17.6046 0.811483 18.8982 0.438668 20.8941C0.260723 21.8469 0.512465 22.821 1.12937 23.5667C1.74568 24.3118 2.65265 24.7391 3.61757 24.7391H8.57635C8.57635 26.5285 10.0273 27.9843 11.8107 27.9843C13.5942 27.9843 15.0451 26.5285 15.0451 24.7391H19.9831C20.948 24.7391 21.855 24.3118 22.4713 23.5667C23.0882 22.821 23.3399 21.8469 23.162 20.8941ZM11.8107 25.8208C11.2163 25.8208 10.7326 25.3356 10.7326 24.7391H12.8889C12.8889 25.3356 12.4053 25.8208 11.8107 25.8208Z" fill="#4298D3"/>
</svg>
