<svg width="24" height="28" viewBox="0 0 24 28" fill="none" xmlns="http://www.w3.org/2000/svg">
<path d="M23.162 20.8944C23.0524 20.3072 22.4891 19.9204 21.9038 20.0304C21.3186 20.1405 20.933 20.7057 21.0426 21.2929C21.124 21.7285 20.9331 22.039 20.8122 22.1853C20.6915 22.3312 20.4232 22.576 19.9831 22.576H3.61757C3.17743 22.576 2.90919 22.3312 2.7885 22.1853C2.66753 22.039 2.47665 21.7285 2.55805 21.2929C2.86386 19.6556 3.47747 18.5786 4.07087 17.5371C4.79154 16.2724 5.53674 14.9645 5.53674 12.9485V11.3259C5.53674 7.91482 8.30014 5.10205 11.6983 5.05256H11.9022C15.2889 5.10194 18.043 7.91471 18.043 11.326V12.9485C18.043 14.6643 18.6024 15.845 19.1268 16.817C19.3219 17.1787 19.6928 17.384 20.0759 17.384C20.2492 17.384 20.425 17.342 20.5881 17.2534C21.1118 16.9691 21.3065 16.3126 21.023 15.7872C20.5013 14.8201 20.1993 14.0455 20.1993 12.9485V11.326C20.1993 9.0997 19.3399 6.99703 17.7792 5.40531C16.4418 4.0412 14.7245 3.18993 12.868 2.95498V1.37403C12.868 0.776588 12.3854 0.292297 11.7899 0.292297C11.1945 0.292297 10.7118 0.776588 10.7118 1.37403V2.95817C6.59023 3.49471 3.38055 7.0629 3.38055 11.326V12.9485C3.38055 14.3898 2.85911 15.3049 2.19898 16.4634C1.54865 17.6049 0.811483 18.8986 0.438668 20.8944C0.260723 21.8472 0.512465 22.8213 1.12937 23.567C1.74568 24.3121 2.65265 24.7394 3.61757 24.7394H8.57635C8.57635 26.5288 10.0273 27.9846 11.8107 27.9846C13.5942 27.9846 15.0451 26.5288 15.0451 24.7394H19.9831C20.948 24.7394 21.855 24.3121 22.4713 23.567C23.0882 22.8213 23.3399 21.8472 23.162 20.8944ZM11.8107 25.8211C11.2163 25.8211 10.7326 25.3359 10.7326 24.7394H12.8889C12.8889 25.3359 12.4053 25.8211 11.8107 25.8211Z" fill="#828282"/>
</svg>
