<svg width="28" height="24" viewBox="0 0 28 24" fill="none" xmlns="http://www.w3.org/2000/svg">
<path d="M25.8342 10.9531C24.5195 9.63396 22.7434 9.05339 21.0224 9.21094V3.15704C21.0224 1.81499 19.9343 0.723145 18.5967 0.723145H2.38999C1.12562 0.723145 0 1.78968 0 3.15704V19.383C0 20.725 1.08815 21.8169 2.42567 21.8169C19.1966 21.7611 18.6927 21.9504 19.462 21.6559L21.0028 23.2018C21.3186 23.5187 21.8305 23.5187 22.1463 23.2018L25.8342 19.5013C28.1884 17.1391 28.1888 13.3156 25.8342 10.9531ZM8.94801 2.34574H12.1822V6.40223H8.94801V2.34574ZM2.42567 20.1943C1.97981 20.1943 1.61713 19.8303 1.61713 19.383V3.15704C1.61713 2.70969 1.97987 2.34574 2.42567 2.34574H7.33093V7.21353C7.33093 7.66158 7.69291 8.02483 8.13947 8.02483H12.9908C13.4374 8.02483 13.7994 7.66158 13.7994 7.21353V2.34574H18.5968C19.0427 2.34574 19.4053 2.70969 19.4053 3.15704V9.58869C18.643 9.8827 17.9286 10.3372 17.3148 10.9531C14.966 13.3098 14.966 17.1446 17.3148 19.5014L18.0053 20.1943H2.42567ZM24.6907 18.3541L21.5745 21.4809L18.4582 18.3541C16.736 16.6259 16.7357 13.8288 18.4582 12.1004C20.1766 10.3763 22.9723 10.3762 24.6907 12.1004C26.413 13.8285 26.4133 16.6257 24.6907 18.3541Z" fill="#4298D3"/>
<path d="M21.6019 12.6602C20.1812 12.6602 19.0254 13.8199 19.0254 15.2455C19.0254 16.671 20.1812 17.8309 21.6019 17.8309C23.0227 17.8309 24.1785 16.6711 24.1785 15.2455C24.1785 13.82 23.0226 12.6602 21.6019 12.6602ZM21.6019 16.2083C21.0729 16.2083 20.6425 15.7764 20.6425 15.2455C20.6425 14.7147 21.0729 14.2828 21.6019 14.2828C22.131 14.2828 22.5614 14.7146 22.5614 15.2455C22.5614 15.7764 22.131 16.2083 21.6019 16.2083Z" fill="#4298D3"/>
<path d="M8.95044 13.7041H4.0937C3.64714 13.7041 3.28516 14.0673 3.28516 14.5154C3.28516 14.9635 3.64714 15.3267 4.0937 15.3267H8.95044C9.397 15.3267 9.75898 14.9635 9.75898 14.5154C9.75898 14.0673 9.397 13.7041 8.95044 13.7041Z" fill="#4298D3"/>
<path d="M8.94505 16.9492H4.0937C3.64714 16.9492 3.28516 17.3125 3.28516 17.7605C3.28516 18.2086 3.64714 18.5718 4.0937 18.5718H8.94505C9.39161 18.5718 9.75359 18.2086 9.75359 17.7605C9.75359 17.3125 9.39161 16.9492 8.94505 16.9492Z" fill="#4298D3"/>
</svg>
