<svg width="28" height="24" viewBox="0 0 28 24" fill="none" xmlns="http://www.w3.org/2000/svg">
<path d="M25.8342 10.953C24.5195 9.63389 22.7434 9.05333 21.0224 9.21088V3.15698C21.0224 1.81493 19.9343 0.723083 18.5967 0.723083H2.38999C1.12562 0.723083 0 1.78962 0 3.15698V19.3829C0 20.725 1.08815 21.8168 2.42567 21.8168C19.1966 21.761 18.6927 21.9503 19.462 21.6558L21.0028 23.2018C21.3186 23.5187 21.8305 23.5186 22.1463 23.2018L25.8342 19.5013C28.1884 17.139 28.1888 13.3156 25.8342 10.953ZM8.94801 2.34568H12.1822V6.40217H8.94801V2.34568ZM2.42567 20.1942C1.97981 20.1942 1.61713 19.8303 1.61713 19.3829V3.15698C1.61713 2.70963 1.97987 2.34568 2.42567 2.34568H7.33093V7.21347C7.33093 7.66152 7.69291 8.02477 8.13947 8.02477H12.9908C13.4374 8.02477 13.7994 7.66152 13.7994 7.21347V2.34568H18.5968C19.0427 2.34568 19.4053 2.70963 19.4053 3.15698V9.58862C18.643 9.88264 17.9286 10.3372 17.3148 10.953C14.966 13.3098 14.966 17.1446 17.3148 19.5013L18.0053 20.1942H2.42567ZM24.6907 18.354L21.5745 21.4808L18.4582 18.354C16.736 16.6258 16.7357 13.8287 18.4582 12.1003C20.1766 10.3762 22.9723 10.3762 24.6907 12.1003C26.413 13.8285 26.4133 16.6256 24.6907 18.354Z" fill="#828282"/>
</svg>
