<svg width="28" height="28" viewBox="0 0 28 28" fill="none" xmlns="http://www.w3.org/2000/svg">
<g clip-path="url(#clip0)">
<path d="M13.8004 14.0307C9.99582 14.0307 6.90039 10.925 6.90039 7.10762C6.90039 3.29025 9.99582 0.18457 13.8004 0.18457C17.605 0.18457 20.7004 3.2903 20.7004 7.10767C20.7004 10.925 17.605 14.0307 13.8004 14.0307ZM13.8004 1.91536C10.9468 1.91536 8.62541 4.24443 8.62541 7.10767C8.62541 9.97091 10.9467 12.3 13.8004 12.3C16.6541 12.3 18.9754 9.97086 18.9754 7.10767C18.9754 4.24448 16.6541 1.91536 13.8004 1.91536Z" fill="#4298D3"/>
<path d="M25.0121 27.877H2.58712C2.11037 27.877 1.72461 27.49 1.72461 27.0116V21.0545C1.72461 20.1604 2.18028 19.3203 2.91308 18.8606C9.39024 14.8066 18.2149 14.8075 24.6853 18.8597C25.419 19.3203 25.8747 20.1604 25.8747 21.0545V27.0116C25.8747 27.49 25.4889 27.877 25.0121 27.877ZM3.44963 26.1463H24.1497V21.0545C24.1497 20.7528 24.0048 20.4739 23.7715 20.3277C17.8493 16.6186 9.75412 16.616 3.82702 20.3286C3.59456 20.474 3.44968 20.7528 3.44968 21.0546L3.44963 26.1463Z" fill="#4298D3"/>
</g>
<defs>
<clipPath id="clip0">
<rect width="27.6" height="27.6923" fill="white" transform="translate(0 0.18457)"/>
</clipPath>
</defs>
</svg>
