<svg width="28" height="28" viewBox="0 0 28 28" fill="none" xmlns="http://www.w3.org/2000/svg">
<g clip-path="url(#clip0)">
<path d="M13.8004 14.0307C9.99582 14.0307 6.90039 10.925 6.90039 7.10762C6.90039 3.29025 9.99582 0.18457 13.8004 0.18457C17.605 0.18457 20.7004 3.2903 20.7004 7.10767C20.7004 10.925 17.605 14.0307 13.8004 14.0307ZM13.8004 1.91536C10.9468 1.91536 8.62541 4.24443 8.62541 7.10767C8.62541 9.97091 10.9467 12.3 13.8004 12.3C16.6541 12.3 18.9754 9.97086 18.9754 7.10767C18.9754 4.24448 16.6541 1.91536 13.8004 1.91536Z" fill="#828282"/>
<path d="M25.0121 27.8773H2.58712C2.11037 27.8773 1.72461 27.4903 1.72461 27.0119V21.0548C1.72461 20.1607 2.18028 19.3207 2.91308 18.8609C9.39024 14.8069 18.2149 14.8078 24.6853 18.86C25.419 19.3206 25.8747 20.1607 25.8747 21.0548V27.0119C25.8747 27.4903 25.4889 27.8773 25.0121 27.8773ZM3.44963 26.1466H24.1497V21.0548C24.1497 20.7531 24.0048 20.4742 23.7715 20.328C17.8493 16.6189 9.75412 16.6163 3.82702 20.3289C3.59456 20.4743 3.44968 20.7531 3.44968 21.0549L3.44963 26.1466Z" fill="#828282"/>
</g>
<defs>
<clipPath id="clip0">
<rect width="27.6" height="27.6923" fill="white" transform="translate(0 0.18457)"/>
</clipPath>
</defs>
</svg>
